<svg width="320" height="320" viewBox="0 0 320 320" fill="none" xmlns="http://www.w3.org/2000/svg">
  <rect width="320" height="320" rx="42" fill="#2E3092"/>
  <path d="M69 244V76H154.5C176.3 76 193.5 81.2 206 91.6C218.7 102 225 116.6 225 135.5C225 149.2 221.4 160.6 214.1 169.8C206.9 178.8 196.8 185.2 183.8 189L230.2 244H183.9L143.7 194.4H112.8V244H69ZM112.8 161.7H149C159.2 161.7 167.1 159.4 172.8 154.8C178.5 150.2 181.4 143.8 181.4 135.7C181.4 127.5 178.5 121.2 172.8 116.8C167.1 112.3 159.2 110.1 149 110.1H112.8V161.7Z" fill="white"/>
  <rect x="62" y="258" width="196" height="14" rx="7" fill="#F8941D"/>
</svg>
